<svg width="25" height="24" viewBox="0 0 25 24" fill="none" xmlns="http://www.w3.org/2000/svg">
<path d="M2.23747 14.7243C2.11029 14.2251 2.0467 13.9755 2.12855 13.7077C2.19386 13.494 2.37456 13.2615 2.56554 13.1454C2.80485 13 3.1009 13 3.69302 13L14.4833 13L12.1904 15.2929C11.7999 15.6834 11.7999 16.3166 12.1904 16.7071C12.5809 17.0976 13.2141 17.0976 13.6046 16.7071L17.6046 12.7071C17.9951 12.3166 17.9951 11.6834 17.6046 11.2929L13.6046 7.29289C13.2141 6.90237 12.5809 6.90237 12.1904 7.29289C11.7999 7.68342 11.7999 8.31658 12.1904 8.70711L14.4833 11L3.69302 11C3.1009 11 2.80485 11 2.56554 10.8546C2.37456 10.7385 2.19386 10.506 2.12855 10.2923C2.0467 10.0245 2.11029 9.77489 2.23747 9.27574C3.44961 4.51831 7.76269 1 12.8975 1C18.9726 1 23.8975 5.92487 23.8975 12C23.8975 18.0751 18.9726 23 12.8975 23C7.76269 23 3.44961 19.4817 2.23747 14.7243Z" fill="#B9C0D4"/>
</svg>
