<svg width="464" height="328" viewBox="0 0 464 328" fill="none" xmlns="http://www.w3.org/2000/svg">
  <g opacity="0.5">
    <path opacity="0.3" d="M463.999 240.358C456.779 240.358 449.628 238.931 442.958 236.16C436.287 233.388 430.226 229.326 425.119 224.205C420.014 219.084 415.963 213.004 413.2 206.313C410.438 199.622 409.015 192.451 409.015 185.209C409.015 177.967 410.438 170.795 413.2 164.104C415.963 157.413 420.014 151.334 425.119 146.213C430.226 141.092 436.287 137.029 442.958 134.258C449.628 131.486 456.779 130.06 463.999 130.06V240.358Z" fill="#1B91FF"/>
    <path opacity="0.2" d="M243.466 328C243.466 313.516 246.317 299.173 251.859 285.791C257.401 272.409 265.523 260.25 275.763 250.008C286.002 239.765 298.158 231.641 311.536 226.098C324.913 220.555 339.252 217.702 353.733 217.702C368.213 217.702 382.552 220.555 395.93 226.098C409.307 231.641 421.463 239.765 431.703 250.008C441.942 260.25 450.064 272.409 455.606 285.791C461.148 299.173 464 313.516 464 328H243.466Z" fill="#1B91FF"/>
    <path opacity="0.3" d="M166.07 217.702C196.601 217.702 221.353 242.393 221.353 272.851V328H110.787V272.851C110.787 242.393 135.538 217.702 166.07 217.702Z" fill="#1B91FF"/>
    <path opacity="0.2" d="M44.1478 240.357C68.4084 240.357 88.0754 259.977 88.0754 284.179C88.0754 308.38 68.4084 328 44.1478 328C19.8873 328 0.220215 308.38 0.220215 284.179C0.220215 259.977 19.8873 240.357 44.1478 240.357Z" fill="#1B91FF"/>
    <path opacity="0.1" d="M243 0C302.647 0 351 48.1294 351 107.5C351 166.871 302.647 215 243 215C183.353 215 135 166.871 135 107.5C135 48.1294 183.353 0 243 0Z" fill="#1B91FF"/>
  </g>
</svg>
