<svg width="154" height="154" viewBox="0 0 154 154" fill="none" xmlns="http://www.w3.org/2000/svg">
<g clip-path="url(#clip0_1_44)">
<path fill-rule="evenodd" clip-rule="evenodd" d="M115.367 82.3288C115.401 82.3348 115.439 82.3413 115.479 82.3483C115.702 82.3871 116.017 82.4403 116.411 82.5029C117.198 82.6279 118.307 82.7913 119.63 82.9511C122.243 83.2668 125.829 83.5859 129.466 83.532C132.916 83.4807 137.228 83.0946 140.816 81.484C142.686 80.6445 144.772 79.2898 146.288 77.0749C147.893 74.73 148.464 71.9936 148.146 69.2235C147.825 66.4311 146.482 63.6528 145.134 61.4323C143.684 59.0425 141.778 56.5725 139.618 54.2935C135.527 49.9784 129.472 45.2489 122.785 44.1708C117.83 43.3719 112.684 44.8518 108.58 46.4558C107.287 46.961 105.991 47.5234 104.714 48.1137C104.456 47.5517 104.146 47.0127 103.789 46.5023C102.194 44.2168 99.8786 42.7539 97.9598 41.8064C94.0092 39.8556 88.8327 38.6941 84.074 38.1345C79.2788 37.5706 74.085 37.5226 69.9314 38.2955C67.9514 38.6639 65.4947 39.3419 63.4482 40.7874C62.8047 41.242 62.1111 41.8365 61.4835 42.5998C59.4832 40.3012 57.4415 38.0126 55.496 36.0013C53.9757 34.4295 52.4184 32.9263 50.8999 31.6689C49.4631 30.4792 47.6854 29.1897 45.7356 28.41C38.5852 25.5509 30.5494 27.1247 24.9024 29.0264C21.9144 30.0327 19.1911 31.2674 17.0013 32.4537C15.0159 33.5292 12.8788 34.8793 11.5187 36.2797C9.52917 38.3283 7.35691 41.7791 7.18551 45.9238C7.09382 48.1408 7.59034 50.5429 9.00578 52.7734C10.4029 54.9751 12.4389 56.6088 14.7964 57.7622C21.8258 61.201 33.6844 64.723 44.1975 67.8453C44.3826 67.9002 44.5673 67.9551 44.7515 68.0098C48.8904 69.2392 52.8663 70.4206 56.4394 71.5472C55.1752 72.0705 53.9253 72.6466 52.7093 73.2728C47.3392 76.0385 41.4503 80.3948 38.7541 86.7012C35.1021 95.2447 36.7791 103.947 40.8681 110.899C44.9127 117.775 51.5187 123.391 58.89 126.55C66.4198 129.777 75.0656 130.349 82.7578 128.188C90.5144 126.008 97.6768 120.902 101.25 112.542C105.991 101.454 102.469 89.0233 95.626 80.4195C97.515 80.5667 99.5287 80.7411 101.534 80.9254C105.133 81.2561 108.649 81.6133 111.268 81.8882C112.577 82.0255 113.659 82.142 114.413 82.2241C114.79 82.2652 115.085 82.2976 115.285 82.3196L115.367 82.3288Z" fill="url(#paint0_linear_1_44)"/>
<path d="M120.619 51.8969C111.633 50.2281 97.0851 60.286 89.9249 62.6134C89.4357 62.7724 84.4461 73.248 84.1163 73.71C79.8235 79.7215 73.9981 75.8108 71.3682 63.652C66.2935 62.4028 49.9992 37.0665 42.5532 33.8819C32.876 29.743 18.0062 37.0888 15.4939 39.5556C12.9815 42.0223 10.7732 47.3221 16.6515 50.3734C30.0389 57.3215 64.7679 65.7167 71.5494 70.9507C75.1818 72.2422 66.654 56.0533 65.2015 48.4009C63.749 40.7486 101.618 45.0857 97.4618 54.0052C96.2983 56.5025 93.2564 58.8209 89.9249 62.6134C86.5294 68.8592 83.476 74.4137 83.901 73.7959C84.7287 72.5928 114.643 76.6597 114.643 76.6597C114.643 76.6597 140.893 82.2196 139.923 71.56C139.43 66.1352 129.604 53.5656 120.619 51.8969Z" fill="white"/>
<path d="M79.866 61.4408C75.7967 60.5122 73.4367 68.9399 73.4367 68.9399C73.4367 68.9399 81.9227 75.6288 82.446 70.1704C82.9693 64.712 81.8244 61.8878 79.866 61.4408Z" fill="white"/>
<path fill-rule="evenodd" clip-rule="evenodd" d="M127.657 76.8173C130.926 76.8465 139.104 76.8168 138.636 71.6791C138.278 67.7416 134.887 63.6294 131.942 61.3096C127.319 57.6677 123.991 55.9149 119.915 55.158C117.94 54.7913 115.562 55.0565 112.909 55.7777C110.269 56.4952 105.254 58.1685 102.453 59.4548C99.5524 60.4736 97.7952 61.1251 96.0483 61.7729C95.1985 62.088 94.3513 62.4021 93.376 62.7572L93.4172 62.8809C92.5013 63.186 91.6245 63.4714 90.7832 63.7367C90.0906 65.01 89.4169 66.2462 88.7885 67.3995L88.0524 68.7504C87.6195 69.6161 87.1913 70.4799 86.8037 71.2619L86.8026 71.264C86.6222 71.628 86.4506 71.9741 86.2913 72.2945C87.1048 72.3168 88.0734 72.3714 89.1451 72.4492C92.0933 72.6633 95.9314 73.0613 99.7269 73.495C102.928 73.8608 106.146 74.3616 109.37 74.8634C115.46 75.8112 121.575 76.763 127.657 76.8173ZM89.2115 61.4169C96.3879 50.936 94.4423 48.1651 81.4958 46.3298C77.1892 45.7193 73.528 45.5691 70.4181 46.0716C64.0285 47.104 67.5338 54.2625 69.9813 59.2608C70.4331 60.1835 70.8489 61.0327 71.1597 61.756C72.1188 62.2503 73.0346 62.6416 73.9498 62.934C74.5739 62.0464 75.3543 61.1367 76.2911 60.4611C77.46 59.6182 79.0363 59.0394 80.8147 59.5761C82.4283 60.063 83.4391 61.3287 83.9882 62.8474C85.5279 62.4974 87.2486 62.0222 89.2115 61.4169ZM74.2173 68.7997C74.4965 68.193 74.9877 67.1686 75.5983 66.0747C76.6305 66.2364 77.703 66.3025 78.8488 66.2698C80.0556 66.2354 81.3357 66.0913 82.7277 65.8418C82.8011 67.139 82.679 68.672 82.3964 70.3769C81.6725 74.7445 76.6193 71.3996 74.7003 69.9498C74.5359 69.5859 74.3747 69.2026 74.2173 68.7997ZM76.8317 73.4534C77.9001 73.9912 79.2756 74.509 80.6254 74.385C81.2369 74.3288 81.864 74.1382 82.4279 73.7567C81.6911 74.5703 80.9895 74.9823 80.3776 75.1307C79.6348 75.3108 78.8104 75.1545 77.8921 74.464C77.5401 74.1992 77.1849 73.8627 76.8317 73.4534ZM84.2558 70.3274C84.5348 68.5103 84.6252 66.8863 84.5159 65.4779C85.3528 65.2892 86.2299 65.0677 87.1541 64.8141C86.7303 65.6324 86.2653 66.5524 85.8054 67.4711L85.7647 67.5525C85.2398 68.516 84.7598 69.398 84.3444 70.1639C84.3146 70.219 84.285 70.2735 84.2558 70.3274ZM95.9037 58.5665C95.6977 58.6685 95.494 58.7691 95.2927 58.868L95.4315 58.725C96.7499 57.3634 97.9461 56.0211 98.6298 54.5537C99.3547 52.9978 99.1458 51.4784 98.2828 50.1771C93.1277 42.4046 73.5987 39.6521 65.6206 45.0077C62.1667 47.3263 64.6664 52.9154 66.3161 56.6039C66.636 57.319 66.9238 57.9626 67.1302 58.4972C66.9972 58.353 66.8625 58.2056 66.7261 58.0551C64.4543 55.549 62.2803 52.5546 60.0551 49.4898C55.164 42.7529 50.0257 35.6757 43.0585 32.6958C34.9722 29.2374 20.9205 32.4179 14.5885 38.6351C13.182 40.0161 11.7948 42.2385 11.6367 44.663C11.5559 45.9032 11.7993 47.1964 12.5303 48.4114C13.258 49.6206 14.4211 50.6739 16.0561 51.5225C22.6002 54.919 34.0775 58.6268 44.8483 62.1063L44.8483 62.1063L44.8747 62.1148C50.9528 64.0784 56.8164 65.9726 61.5452 67.7188C65.9962 69.3624 69.2469 70.8082 70.7599 71.976L70.9226 72.1016L71.1161 72.1704C71.4714 72.2967 71.9899 72.4071 72.5301 72.2115C72.6474 72.1691 72.754 72.1167 72.8507 72.0568C73.8726 74.0441 75.0494 75.5578 76.3421 76.53C77.7455 77.5855 79.3467 78.0396 80.9856 77.6422C82.4418 77.2891 83.738 76.3091 84.8501 74.885C85.0128 74.8751 85.2165 74.8688 85.4639 74.8677C86.3106 74.864 87.5077 74.9212 88.9589 75.0266C91.8524 75.2367 95.648 75.6298 99.4346 76.0625C102.654 76.4304 105.889 76.9315 109.13 77.4336C115.291 78.3881 121.477 79.3464 127.634 79.4013C131.683 79.4375 137.507 79.2842 140.161 75.5972C146.552 66.7193 128.49 52.047 120.852 50.6286C118.334 50.1609 115.525 50.5271 112.699 51.2952C109.86 52.0669 106.902 53.2737 104.048 54.5842C101.887 55.5763 99.7534 56.6436 97.7634 57.6391L97.7629 57.6393L97.761 57.6403C97.126 57.9579 96.5056 58.2683 95.9037 58.5665ZM62.4381 65.2944C65.9216 66.5807 68.9304 67.8334 70.9619 69.0204C70.6634 67.7904 70.0529 66.061 69.2796 64.0279C68.8934 63.7586 68.509 63.4498 68.1329 63.1243C67.1296 62.2558 66.0075 61.1072 64.8149 59.7916C62.6077 57.3569 60.4807 54.3931 58.2963 51.3495C53.5997 44.8055 48.6379 37.892 42.0448 35.0722C37.6373 33.1871 31.8724 33.8772 26.7177 35.4778C21.457 37.1113 13.3243 42.5598 19.9408 48.0786C24.8811 52.1994 43.8541 58.7638 49.9224 60.7254C53.749 61.9624 56.1144 62.8759 58.6496 63.855C59.8223 64.308 61.0313 64.7749 62.4381 65.2944ZM78.7723 63.5885C78.2297 63.604 77.7067 63.5941 77.1972 63.5583C78.1996 62.2161 79.2888 61.243 80.2352 61.5027C81.1232 61.7463 81.7533 62.3395 82.1606 63.2187C80.924 63.4369 79.8087 63.559 78.7723 63.5885Z" fill="#30374F"/>
<path d="M77.6692 66.2077C75.3981 66.1313 71.6336 65.4039 68.9897 63.7931L69.2146 68.1186C71.8034 69.73 75.8127 70.2739 71.7211 74.1927C71.4741 74.4292 79.6181 72.7596 80.3108 72.6416C84.2322 71.9737 89.2407 72.4232 89.2407 72.4232C92.9944 68.7492 98.8736 61.0724 94.768 62.2377C91.4592 63.1769 82.3724 66.3661 77.6692 66.2077Z" fill="white"/>
<path fill-rule="evenodd" clip-rule="evenodd" d="M82.8856 69.5632C80.8116 67.9321 76.7966 67.7747 74.182 67.8915C73.4271 67.9253 72.237 68.0454 71.2867 68.6638C70.1724 69.3886 68.3592 71.0827 66.9282 72.881C58.162 74.7784 48.9374 80.8309 45.6973 90.1866C40.8056 104.315 48.7477 118.483 62.5726 123.283C69.4334 125.665 77.1276 125.619 83.7472 123.242C90.3907 120.856 96.0938 116.055 98.585 108.86C102.659 97.0957 96.3805 84.2762 87.0645 77.6563C86.0368 74.8098 85.4529 71.5831 82.8856 69.5632Z" fill="#30374F"/>
<path fill-rule="evenodd" clip-rule="evenodd" d="M79.0054 71.0539C79.7567 71.2928 80.6206 71.6494 81.2976 72.1964C82.1897 72.9174 82.9811 74.1542 83.5884 75.3057C83.7937 75.6949 83.9948 76.1072 84.1876 76.5349C79.6344 74.723 76.8938 75.1216 75.8357 75.2755C75.6248 75.3062 75.4808 75.3271 75.4025 75.3189C75.5049 75.3447 75.705 75.3687 75.9861 75.4023C77.5118 75.585 81.4219 76.0533 85.0227 78.6467C85.0273 78.6601 85.0319 78.6735 85.0365 78.687C93.1544 84.5984 98.6983 96.5943 94.9985 107.311C92.7362 113.865 87.6761 118.28 81.8144 120.513C75.9739 122.738 68.5851 122.919 62.5812 120.828C50.483 116.614 42.9006 103.767 47.3429 90.8971C50.2854 82.3746 59.692 76.3683 67.4138 74.5568C69.0273 72.9728 70.437 71.7857 71.4234 71.1166C72.2647 70.5458 73.3116 70.4246 73.9753 70.3862C74.766 70.3405 75.6416 70.3903 76.4846 70.5028C77.3314 70.6159 78.2092 70.8007 79.0054 71.0539Z" fill="white"/>
<path fill-rule="evenodd" clip-rule="evenodd" d="M71.2042 106.697C77.3256 108.217 81.7033 103.534 83.7361 97.7358C85.4579 92.8253 86.897 85.4204 80.6463 82.1897C77.5171 80.5724 70.0598 78.6681 62.7482 79.3267C52.8482 80.2186 48.7498 83.1205 46.8119 85.0181C44.8807 86.8332 43.3113 89.3822 42.8388 92.549C41.241 103.257 46.4292 108.068 48.6138 106.998L48.615 107C48.6176 106.998 48.6203 106.996 48.623 106.994C48.6498 106.981 48.6761 106.966 48.7019 106.951C48.8579 106.86 49.0127 106.754 49.1656 106.636C54.2459 103.495 61.9963 104.41 71.2042 106.697Z" fill="white"/>
<path fill-rule="evenodd" clip-rule="evenodd" d="M48.9708 106.503L48.9696 106.502C46.8472 107.55 41.8005 102.821 43.3446 92.3037C43.8012 89.1934 45.3245 86.6909 47.2001 84.9096C49.082 83.0473 53.0631 80.2002 62.6848 79.3323C69.7908 78.6914 77.0406 80.5681 80.0834 82.1594C86.1614 85.338 84.7688 92.6104 83.0994 97.4324C81.1284 103.126 76.8773 107.723 70.9264 106.224C61.9748 103.97 54.4409 103.065 49.5057 106.146C49.3572 106.262 49.2068 106.366 49.0553 106.455C49.0302 106.47 49.0046 106.484 48.9786 106.497L48.9708 106.503ZM47.8298 108.215C47.6553 107.972 47.9926 107.995 47.8766 107.959C47.6725 107.897 47.8413 108.035 47.271 107.819C46.1716 107.142 45.1735 106.038 44.3808 104.632C42.7808 101.794 41.8789 97.5047 42.7023 91.8966C43.2319 88.289 44.9971 85.3948 47.1472 83.3472C49.4117 81.1122 54.3987 77.8023 62.5041 77.0712C69.9612 76.3986 78.2741 77.7585 81.6696 79.5342C86.1996 81.9033 87.7653 85.3844 88.0066 88.7356C88.2395 91.9699 87.597 96.1851 86.7333 98.6799C85.6669 101.76 83.5586 105.308 81.1346 107.284C78.6473 109.311 75.5013 110.283 71.8721 109.369C67.4402 108.253 61.5601 106.461 58.1486 106.345C54.7749 106.23 52.4203 106.347 50.4197 107.568C49.555 108.057 48.8218 108.273 48.2818 108.179M47.8298 108.215C48.1873 108.355 47.9678 108.3 48.2818 108.179L47.8298 108.215Z" fill="#30374F"/>
</g>
<defs>
<linearGradient id="paint0_linear_1_44" x1="30.8634" y1="84.6797" x2="112.188" y2="100.792" gradientUnits="userSpaceOnUse">
<stop offset="0.166667" stop-color="#6947C3"/>
<stop offset="0.510417" stop-color="#FF6F30"/>
<stop offset="0.932292" stop-color="#FFBD00"/>
</linearGradient>
<clipPath id="clip0_1_44">
<rect width="153" height="153" fill="white" transform="translate(0.897522 0.993652)"/>
</clipPath>
</defs>
</svg>
