<svg width="74" height="24" viewBox="0 0 74 24" fill="none" xmlns="http://www.w3.org/2000/svg">
  <path d="M13.6074 2.66014C12.8372 2.22005 11.957 2 10.9825 2H7.21026C6.86447 2 6.58156 2.11002 6.34579 2.34579C6.12574 2.56584 6 2.86447 6 3.21026V15.9888C6 16.3346 6.12574 16.6175 6.34579 16.8532C6.58156 17.089 6.86447 17.199 7.21026 17.199C7.57177 17.199 7.85469 17.0733 8.09046 16.8375C8.31051 16.6018 8.43625 16.3188 8.43625 15.9731V12.0908H10.9982C11.957 12.0908 12.8372 11.8707 13.6074 11.4621C14.3775 11.0377 14.9905 10.4404 15.4149 9.68597C15.8393 8.93152 16.0593 8.06704 16.0593 7.12398C16.0593 6.14948 15.8393 5.25357 15.4149 4.4834C14.9748 3.69751 14.3775 3.08452 13.6074 2.66014ZM10.9825 9.81171H8.43625V4.27907H10.9982C11.7998 4.27907 12.4285 4.54627 12.9472 5.08067C13.4659 5.61508 13.7174 6.29094 13.7174 7.12398C13.7174 7.92558 13.4659 8.55429 12.963 9.05726C12.4285 9.56022 11.7841 9.81171 10.9825 9.81171Z" fill="#052E53"/>
  <path d="M24.5312 6.63673C24.1225 6.41668 23.5567 6.30666 22.8494 6.30666C22.1893 6.30666 21.5606 6.44812 20.979 6.6996C20.5861 6.88821 20.2246 7.10826 19.9102 7.39118C19.8473 6.76247 19.4387 6.41668 18.7471 6.41668C18.3856 6.41668 18.0869 6.5267 17.8826 6.73103C17.6783 6.93536 17.5683 7.234 17.5683 7.59551V16.0202C17.5683 16.3974 17.6783 16.6961 17.8826 16.9004C18.0869 17.1047 18.3856 17.199 18.7471 17.199C19.1243 17.199 19.4229 17.089 19.6273 16.8847C19.8316 16.6804 19.9259 16.3817 19.9259 16.0202V10.519C19.9259 9.8903 20.1617 9.40305 20.6646 9.02582C21.1676 8.6486 21.8592 8.44427 22.708 8.44427C23.0066 8.44427 23.3995 8.49142 23.8868 8.57001C24.0282 8.60144 24.1383 8.61716 24.2169 8.61716C24.7198 8.61716 25.0499 8.34996 25.1914 7.84699C25.2071 7.78412 25.2228 7.70553 25.2228 7.57979C25.2228 7.20257 24.987 6.87249 24.5312 6.63673Z" fill="#052E53"/>
  <path d="M33.6789 7.04539C32.8616 6.57385 31.9185 6.33809 30.8969 6.33809C29.8595 6.33809 28.9164 6.57385 28.0834 7.04539C27.2504 7.51692 26.6059 8.16134 26.1501 8.99438C25.6943 9.8117 25.4585 10.7705 25.4585 11.8236C25.4585 12.8609 25.6943 13.804 26.1501 14.637C26.6059 15.4701 27.2661 16.1145 28.0834 16.586C28.9007 17.0576 29.8595 17.2933 30.8969 17.2933C31.9342 17.2933 32.8773 17.0576 33.6946 16.586C34.512 16.1145 35.1564 15.4701 35.6279 14.637C36.0837 13.8197 36.3195 12.8609 36.3195 11.8236C36.3195 10.7705 36.0837 9.8117 35.6122 8.99438C35.1407 8.16134 34.4962 7.5012 33.6789 7.04539ZM30.8812 15.1086C30.2839 15.1086 29.7495 14.9671 29.278 14.6842C28.8064 14.4013 28.4292 14.0083 28.162 13.5211C27.8948 13.0181 27.7533 12.4523 27.7533 11.8079C27.7533 11.1634 27.8948 10.5976 28.162 10.0946C28.4292 9.59166 28.8064 9.19871 29.278 8.91579C29.7495 8.63288 30.2839 8.49142 30.8812 8.49142C31.4784 8.49142 32.0128 8.63288 32.4844 8.91579C32.9559 9.19871 33.3174 9.59166 33.5846 10.0789C33.8518 10.5819 33.9776 11.1634 33.9776 11.7921C33.9776 12.4366 33.8518 13.0024 33.5846 13.5054C33.3174 13.9926 32.9559 14.3856 32.4844 14.6685C32.0286 14.9671 31.4784 15.1086 30.8812 15.1086Z" fill="#052E53"/>
  <path d="M46.2975 7.0611C45.4645 6.58957 44.5371 6.33809 43.5312 6.33809C42.5253 6.33809 41.5979 6.57385 40.7806 7.0611C39.9633 7.53264 39.3031 8.2085 38.8316 9.02582C38.3601 9.85886 38.1086 10.8019 38.1086 11.8079V20.4055C38.1086 20.767 38.2186 21.0499 38.4544 21.2699C38.6744 21.49 38.9731 21.6 39.3031 21.6C39.6489 21.6 39.9476 21.49 40.1676 21.2699C40.3877 21.0499 40.4977 20.7512 40.4977 20.4055V15.9259C40.8749 16.2874 41.2993 16.5703 41.7708 16.8061C42.431 17.1204 43.154 17.2776 43.9084 17.2776C44.8515 17.2776 45.716 17.0419 46.4861 16.5703C47.2563 16.0988 47.8693 15.4387 48.3094 14.6056C48.7495 13.7726 48.9695 12.8452 48.9695 11.8236C48.9695 10.8019 48.7338 9.87458 48.2622 9.04154C47.7907 8.19278 47.1306 7.53264 46.2975 7.0611ZM46.2347 13.5054C45.9675 14.0083 45.5902 14.4013 45.1187 14.6842C44.6472 14.9671 44.1128 15.1086 43.5312 15.1086C42.9497 15.1086 42.4153 14.9671 41.9437 14.6842C41.4722 14.4013 41.095 14.0083 40.8278 13.5054C40.5606 13.0024 40.4191 12.4366 40.4191 11.8236C40.4191 11.1949 40.5606 10.629 40.8278 10.1261C41.095 9.62309 41.4722 9.23015 41.9437 8.94723C42.4153 8.66431 42.9497 8.52285 43.5312 8.52285C44.1128 8.52285 44.6472 8.66431 45.1187 8.94723C45.5902 9.23015 45.9675 9.62309 46.2347 10.1261C46.5019 10.629 46.6433 11.1949 46.6433 11.8236C46.6433 12.4366 46.5176 13.0024 46.2347 13.5054Z" fill="#1B91FF"/>
  <path d="M58.7931 7.01395C58.0544 6.55814 57.1742 6.33809 56.1683 6.33809C55.1466 6.33809 54.2193 6.57385 53.4177 7.04539C52.616 7.51692 51.9716 8.17706 51.5158 9.0101C51.06 9.84314 50.8399 10.7862 50.8399 11.8236C50.8399 12.8609 51.0757 13.8197 51.563 14.637C52.0345 15.4701 52.7104 16.1145 53.5748 16.586C54.4236 17.0419 55.3981 17.2776 56.4669 17.2776C57.0642 17.2776 57.7086 17.1676 58.3687 16.9475C59.0289 16.7275 59.579 16.4289 60.0348 16.0831C60.2863 15.8945 60.4278 15.6273 60.4278 15.3286C60.4278 15.0143 60.2863 14.7471 60.0034 14.5113C59.8148 14.3384 59.579 14.2598 59.2804 14.2598C58.9817 14.2598 58.7302 14.3541 58.5102 14.5113C58.2744 14.6999 57.9444 14.8571 57.5671 14.9828C57.1899 15.1086 56.8127 15.1714 56.4669 15.1714C55.571 15.1714 54.8008 14.92 54.1878 14.417C53.6377 13.9612 53.2919 13.4111 53.119 12.7038H60.0034C60.3177 12.7038 60.5849 12.6095 60.7893 12.4051C60.9936 12.2008 61.1036 11.9493 61.1036 11.635C61.1036 10.6133 60.8993 9.68596 60.5064 8.88436C60.1134 8.09847 59.5319 7.46976 58.7931 7.01395ZM56.1683 8.42855C56.9384 8.42855 57.5514 8.64859 58.0229 9.12012C58.4473 9.52879 58.7145 10.0789 58.856 10.739H53.1504C53.3233 10.0789 53.6377 9.5445 54.0935 9.13584C54.6122 8.66431 55.3038 8.42855 56.1683 8.42855Z" fill="#1B91FF"/>
  <path d="M67.0292 15.1872C66.8249 14.9671 66.5577 14.8414 66.2433 14.8414H65.7718C65.646 14.8414 65.4732 14.8099 65.3003 14.5113C65.1431 14.2441 65.0645 13.8983 65.0645 13.4739V3.17883C65.0645 2.83304 64.9545 2.55012 64.7344 2.33007C64.4987 2.11002 64.2157 2 63.8857 2C63.5399 2 63.257 2.11002 63.0369 2.33007C62.8169 2.55012 62.7068 2.83304 62.7068 3.17883V13.4739C62.7068 14.1655 62.8326 14.8099 63.0841 15.3758C63.3355 15.9416 63.7128 16.3974 64.1686 16.7118C64.6401 17.0261 65.1745 17.199 65.7561 17.199H65.7875C66.2119 17.199 66.5734 17.089 66.8563 16.8847C67.1549 16.6646 67.3121 16.366 67.3121 16.0202C67.3278 15.6901 67.2178 15.4072 67.0292 15.1872Z" fill="#1B91FF"/>
</svg>
