<svg width="468" height="143" viewBox="0 0 468 143" fill="none" xmlns="http://www.w3.org/2000/svg">
<g clip-path="url(#clip0_2657_15015)">
<path d="M149.814 22.4398C148.458 22.2413 147.125 22.142 145.841 22.142C141.069 22.142 136.902 23.5816 133.316 26.4858C129.731 29.3404 127.139 33.7339 125.54 39.6167H124.643V26.039C124.643 24.5497 123.456 23.3334 122.003 23.3334H100.345C98.891 23.3334 97.7039 24.5249 97.7039 26.0142L97.6555 109.838C97.6555 111.328 98.8425 112.544 100.296 112.544H122.754C124.207 112.544 125.394 111.353 125.394 109.863V64.1161C125.419 60.5417 126.17 57.4638 127.647 54.8326C129.149 52.1519 131.233 50.0916 133.825 48.6271C136.466 47.113 139.445 46.3683 142.716 46.3683C145.187 46.3683 147.464 46.6414 149.742 47.2371C150.977 47.5598 152.334 47.0385 152.939 45.8719L162.872 26.9823C159.917 25.1951 154.127 23.0604 149.814 22.4398Z" fill="#42307D"/>
<path d="M70.5222 5.46153C64.2234 1.98643 56.7133 0.224067 48.0162 0.224067H5.32975C2.42261 0.199245 0.0726783 2.60699 0.0726783 5.58564L0 109.789C0 111.278 1.18708 112.494 2.64065 112.494H25.4374C26.891 112.494 28.0781 111.303 28.0781 109.814V82.2114H47.144C56.035 82.2114 63.6905 80.5483 70.1588 77.1725C76.6272 73.7967 81.5936 69.0557 85.0821 62.9495C88.5949 56.7936 90.3634 49.62 90.3634 41.4039C90.3634 33.1878 88.6434 26.0639 85.2275 19.908C81.7874 13.7025 76.8937 8.88697 70.5464 5.4367L70.5222 5.46153ZM59.039 50.9852C57.5613 53.6908 55.3809 55.8007 52.5222 57.3148C49.6878 58.829 46.1507 59.5737 41.9112 59.5737H28.0781V26.0887C28.0781 24.5993 29.2651 23.3831 30.7187 23.3831H41.9112C46.1023 23.3831 49.6393 24.1277 52.5222 25.5922C55.4051 27.0567 57.5613 29.1666 59.039 31.8722C60.5168 34.553 61.2436 37.7302 61.2436 41.4039C61.2436 45.0776 60.4926 48.23 59.0148 50.9852H59.039Z" fill="#42307D"/>
<path d="M321.82 27.2056C316.563 23.9539 310.918 22.3157 304.861 22.3157C300.283 22.3157 296.358 23.1348 293.063 24.7482C289.817 26.3369 287.128 28.3723 285.02 30.9041C282.937 33.4111 281.338 36.0423 280.199 38.7479H279.351V26.1631C279.351 24.6738 278.164 23.4575 276.711 23.4575H254.544C253.09 23.4575 251.903 24.6489 251.903 26.1383L251.83 140.295C251.83 142.38 254.035 143.671 255.779 142.628L278.237 132.029C279.061 131.558 279.545 130.664 279.545 129.696V98.1968H280.127C281.289 100.952 282.961 103.534 285.117 105.916C287.297 108.324 290.011 110.26 293.209 111.725C296.431 113.189 300.21 113.934 304.595 113.934C311.015 113.934 316.853 112.246 322.11 108.845C327.416 105.445 331.607 100.331 334.708 93.5302C337.857 86.729 339.432 78.2646 339.432 68.1621C339.432 57.6623 337.809 49.0242 334.563 42.2478C331.316 35.4714 327.053 30.4573 321.771 27.2056H321.82ZM309.149 80.6227C307.938 84.1723 306.145 86.9524 303.771 88.9133C301.397 90.8494 298.49 91.8175 295.098 91.8175C291.707 91.8175 288.848 90.8494 286.425 88.9133C284.051 86.9275 282.21 84.1723 280.926 80.5979C279.69 77.0235 279.061 72.8534 279.061 68.0628C279.061 63.2721 279.69 58.9779 280.95 55.4532C282.234 51.9284 284.075 49.2228 286.45 47.3363C288.824 45.4499 291.731 44.4818 295.123 44.5066C298.514 44.5314 301.446 45.4747 303.795 47.4108C306.17 49.3469 307.962 52.0773 309.174 55.6021C310.409 59.1268 311.039 63.2969 311.039 68.0876C311.039 72.8783 310.409 77.0732 309.149 80.6227Z" fill="#42307D"/>
<path d="M464.075 0.348132L441.618 10.4755C440.794 10.9472 440.261 11.8408 440.261 12.8336L440.213 110.062C440.213 111.551 441.4 112.767 442.853 112.767H465.311C466.764 112.767 467.952 111.576 467.952 110.087L468.024 2.70623C468.024 0.645998 465.868 -0.644751 464.1 0.348132H464.075Z" fill="#42307D"/>
<path d="M420.711 34.1062C416.98 30.234 412.522 27.305 407.386 25.3192C402.25 23.3335 396.581 22.3406 390.38 22.3406C381.61 22.3406 374.003 24.2767 367.534 28.1241C361.066 31.9467 356.051 37.3331 352.514 44.2585C348.953 51.159 347.184 59.2014 347.16 68.4104C347.136 77.6193 348.904 86.0837 352.417 92.9842C355.954 99.8351 361.018 105.122 367.607 108.846C374.221 112.519 382.07 114.381 391.179 114.381C398.786 114.381 405.472 113.214 411.238 110.856C417.028 108.448 421.68 105.122 425.241 100.828C428.197 97.2784 430.28 93.2076 431.54 88.6155C431.976 87.0269 430.764 84.8922 429.166 84.8426H408.67C407.532 84.7929 406.538 85.5128 406.005 86.5305C405.351 87.7468 404.528 88.8389 403.559 89.7573C402.129 91.1226 400.409 92.1403 398.398 92.8353C396.388 93.5303 394.159 93.8778 391.712 93.8778C388.151 93.8778 385.098 93.1083 382.53 91.619C379.962 90.1049 377.976 87.995 376.571 85.2894C375.166 82.5341 374.487 79.3321 374.487 75.708V74.9634L428.608 74.9882C431.394 74.9882 432.291 73.9209 432.533 72.2826C432.533 72.2826 433.914 60.1198 429.432 48.4286C427.252 42.7691 424.441 37.9537 420.711 34.0814V34.1062ZM374.511 58.4815C374.657 55.6022 375.408 53.0455 376.764 50.7619C378.194 48.3293 380.156 46.418 382.603 45.0031C385.05 43.5635 387.836 42.8684 390.937 42.8684C394.038 42.8684 396.703 43.5386 399.053 44.9038C401.427 46.2194 403.292 48.0562 404.673 50.4143C406.03 52.7724 406.732 55.4781 406.756 58.4815H374.511Z" fill="#42307D"/>
<path d="M223.728 28.0744C217.187 24.2021 209.362 22.266 200.205 22.2412C191.047 22.2164 183.198 24.1773 176.608 28.0247C170.067 31.8473 165.028 37.2337 161.467 44.1591C157.954 51.0596 156.186 59.0772 156.186 68.2613C156.186 77.4455 157.93 85.4382 161.443 92.3636C164.98 99.2641 170.043 104.65 176.56 108.523C183.125 112.37 190.999 114.281 200.132 114.281C209.265 114.281 217.114 112.37 223.655 108.548C230.245 104.675 235.284 99.2889 238.797 92.4132C242.358 85.4879 244.127 77.4455 244.151 68.311C244.175 59.1765 242.382 51.1093 238.845 44.2087C235.332 37.2834 230.293 31.897 223.728 28.0496V28.0744ZM214.062 81.0447C212.851 84.768 211.082 87.6722 208.781 89.7573C206.479 91.8423 203.669 92.8848 200.326 92.8848C196.983 92.8848 193.978 91.8423 191.604 89.7324C189.254 87.6474 187.462 84.7432 186.226 81.0199C185.015 77.2966 184.409 73.0024 184.409 68.1124C184.409 63.2225 185.015 58.8289 186.226 55.1056C187.486 51.3823 189.279 48.4781 191.629 46.3931C194.003 44.308 196.91 43.2655 200.35 43.2655C203.79 43.2655 206.479 44.308 208.805 46.4179C211.106 48.503 212.875 51.4071 214.062 55.1304C215.297 58.8538 215.927 63.1976 215.927 68.1372C215.927 73.0768 215.297 77.3214 214.038 81.0199L214.062 81.0447Z" fill="#42307D"/>
</g>
<defs>
<clipPath id="clip0_2657_15015">
<rect width="468" height="143" fill="white"/>
</clipPath>
</defs>
</svg>
