<svg width="219" height="67" viewBox="0 0 219 67" fill="none" xmlns="http://www.w3.org/2000/svg">
<g clip-path="url(#clip0_1_36)">
<path d="M70.6828 10.5138C70.0508 10.4207 69.4302 10.3742 68.8321 10.3742C66.609 10.3742 64.668 11.0488 62.9978 12.4095C61.3277 13.7469 60.1202 15.8054 59.3754 18.5617H58.9579V12.2001C58.9579 11.5023 58.4049 10.9325 57.7278 10.9325H47.6392C46.9621 10.9325 46.4092 11.4907 46.4092 12.1885L46.3866 51.4627C46.3866 52.1605 46.9396 52.7304 47.6166 52.7304H58.0777C58.7547 52.7304 59.3077 52.1722 59.3077 51.4744V30.0404C59.319 28.3657 59.6688 26.9236 60.3572 25.6908C61.0569 24.4348 62.0273 23.4695 63.2348 22.7833C64.4649 22.0739 65.8529 21.725 67.3763 21.725C68.5274 21.725 69.5882 21.853 70.6489 22.1321C71.2245 22.2833 71.8564 22.039 72.1385 21.4924L76.7653 12.6421C75.3886 11.8047 72.6915 10.8045 70.6828 10.5138Z" fill="#53389E"/>
<path d="M33.7476 2.55891C30.8136 0.930717 27.3153 0.104992 23.264 0.104992H3.38018C2.026 0.0933624 0.931376 1.22146 0.931376 2.61706L0.897522 51.4395C0.897522 52.1373 1.45048 52.7071 2.12757 52.7071H12.7466C13.4237 52.7071 13.9766 52.1489 13.9766 51.4511V38.5186H22.8578C26.9993 38.5186 30.5653 37.7394 33.5783 36.1578C36.5914 34.5761 38.9048 32.3548 40.5298 29.4938C42.1661 26.6096 42.9899 23.2485 42.9899 19.399C42.9899 15.5495 42.1887 12.2117 40.5975 9.32752C38.9951 6.42004 36.7155 4.16384 33.7589 2.54728L33.7476 2.55891ZM28.3986 23.8882C27.7102 25.1559 26.6946 26.1444 25.363 26.8538C24.0427 27.5632 22.3951 27.9121 20.4202 27.9121H13.9766V12.2234C13.9766 11.5256 14.5296 10.9557 15.2067 10.9557H20.4202C22.3725 10.9557 24.0201 11.3046 25.363 11.9908C26.7059 12.6769 27.7102 13.6655 28.3986 14.9331C29.087 16.1892 29.4255 17.6778 29.4255 19.399C29.4255 21.1203 29.0757 22.5973 28.3873 23.8882H28.3986Z" fill="#53389E"/>
<path d="M150.805 12.7467C148.356 11.2232 145.727 10.4556 142.906 10.4556C140.773 10.4556 138.945 10.8394 137.41 11.5954C135.898 12.3397 134.645 13.2933 133.663 14.4796C132.693 15.6542 131.948 16.887 131.418 18.1546H131.023V12.2583C131.023 11.5605 130.47 10.9906 129.793 10.9906H119.467C118.79 10.9906 118.237 11.5488 118.237 12.2466L118.203 65.7327C118.203 66.7096 119.23 67.3143 120.043 66.8259L130.504 61.8599C130.887 61.6389 131.113 61.2203 131.113 60.7667V46.0083H131.384C131.925 47.2992 132.704 48.5087 133.708 49.6252C134.724 50.7533 135.988 51.6604 137.478 52.3466C138.978 53.0328 140.739 53.3817 142.781 53.3817C145.772 53.3817 148.492 52.5908 150.94 50.9975C153.412 49.4042 155.364 47.0085 156.809 43.8219C158.276 40.6353 159.009 36.6695 159.009 31.9361C159.009 27.0166 158.253 22.9694 156.741 19.7945C155.229 16.6195 153.243 14.2702 150.782 12.7467H150.805ZM144.903 37.7743C144.339 39.4374 143.504 40.74 142.398 41.6587C141.292 42.5658 139.938 43.0194 138.358 43.0194C136.778 43.0194 135.446 42.5658 134.318 41.6587C133.212 40.7283 132.354 39.4374 131.756 37.7627C131.181 36.088 130.887 34.1342 130.887 31.8896C130.887 29.645 131.181 27.633 131.768 25.9816C132.366 24.3301 133.223 23.0625 134.329 22.1786C135.435 21.2947 136.789 20.8411 138.369 20.8528C139.949 20.8644 141.314 21.3063 142.409 22.2135C143.515 23.1206 144.35 24.3999 144.914 26.0514C145.49 27.7028 145.783 29.6566 145.783 31.9012C145.783 34.1458 145.49 36.1112 144.903 37.7743Z" fill="#53389E"/>
<path d="M217.069 0.163142L206.608 4.90815C206.225 5.12912 205.976 5.5478 205.976 6.01299L205.954 51.5674C205.954 52.2652 206.507 52.8351 207.184 52.8351H217.645C218.322 52.8351 218.875 52.2768 218.875 51.579L218.909 1.26798C218.909 0.302701 217.904 -0.302055 217.081 0.163142H217.069Z" fill="#53389E"/>
<path d="M196.87 15.9798C195.132 14.1656 193.055 12.7932 190.663 11.8628C188.271 10.9325 185.63 10.4673 182.741 10.4673C178.656 10.4673 175.112 11.3744 172.099 13.177C169.086 14.968 166.75 17.4917 165.103 20.7365C163.444 23.9696 162.62 27.7377 162.609 32.0524C162.598 36.3671 163.421 40.3329 165.058 43.566C166.705 46.7759 169.064 49.2531 172.133 50.9975C175.214 52.7188 178.87 53.591 183.113 53.591C186.657 53.591 189.771 53.0444 192.457 51.9396C195.154 50.8115 197.321 49.2531 198.98 47.2411C200.357 45.578 201.327 43.6707 201.914 41.5192C202.117 40.7748 201.553 39.7747 200.808 39.7514H191.261C190.731 39.7282 190.268 40.0654 190.02 40.5422C189.715 41.1121 189.331 41.6238 188.88 42.0541C188.214 42.6938 187.413 43.1706 186.476 43.4963C185.54 43.8219 184.501 43.9847 183.362 43.9847C181.703 43.9847 180.281 43.6242 179.085 42.9264C177.889 42.217 176.963 41.2284 176.309 39.9608C175.654 38.6698 175.338 37.1696 175.338 35.4716V35.1227L200.548 35.1343C201.846 35.1343 202.264 34.6342 202.377 33.8667C202.377 33.8667 203.02 28.168 200.932 22.6903C199.916 20.0387 198.607 17.7825 196.87 15.9682V15.9798ZM175.349 27.4004C175.417 26.0514 175.767 24.8535 176.399 23.7835C177.065 22.6438 177.979 21.7483 179.119 21.0854C180.258 20.4108 181.556 20.0852 183.001 20.0852C184.445 20.0852 185.686 20.3992 186.781 21.0389C187.887 21.6552 188.756 22.5159 189.399 23.6207C190.031 24.7255 190.358 25.9932 190.37 27.4004H175.349Z" fill="#53389E"/>
<path d="M105.113 13.1538C102.066 11.3395 98.4209 10.4324 94.1552 10.4207C89.8895 10.4091 86.2333 11.3279 83.1638 13.1305C80.1169 14.9215 77.7697 17.4452 76.1108 20.69C74.4745 23.9231 73.6507 27.6795 73.6507 31.9826C73.6507 36.2857 74.4632 40.0305 76.0995 43.2753C77.7471 46.5084 80.1056 49.0321 83.1412 50.8464C86.1994 52.649 89.867 53.5445 94.1213 53.5445C98.3757 53.5445 102.032 52.649 105.079 50.858C108.148 49.0437 110.496 46.52 112.132 43.2985C113.791 40.0538 114.615 36.2857 114.626 32.0059C114.637 27.7261 113.802 23.9463 112.154 20.7132C110.518 17.4685 108.171 14.9448 105.113 13.1421V13.1538ZM100.61 37.972C100.046 39.7165 99.2221 41.0772 98.15 42.0541C97.078 43.031 95.7689 43.5195 94.2116 43.5195C92.6543 43.5195 91.255 43.031 90.1491 42.0425C89.0545 41.0656 88.2194 39.7049 87.6439 37.9604C87.0796 36.2159 86.7975 34.2039 86.7975 31.9128C86.7975 29.6217 87.0796 27.5632 87.6439 25.8188C88.2307 24.0743 89.0657 22.7136 90.1604 21.7367C91.2663 20.7597 92.6205 20.2713 94.2229 20.2713C95.8253 20.2713 97.078 20.7597 98.1613 21.7483C99.2334 22.7252 100.057 24.0859 100.61 25.8304C101.186 27.5749 101.479 29.6101 101.479 31.9245C101.479 34.2388 101.186 36.2275 100.599 37.9604L100.61 37.972Z" fill="#53389E"/>
</g>
<defs>
<clipPath id="clip0_1_36">
<rect width="218" height="67" fill="white" transform="translate(0.897522)"/>
</clipPath>
</defs>
</svg>
